<svg width="25" height="25" viewBox="0 0 25 25" fill="none" xmlns="http://www.w3.org/2000/svg">
<path d="M19.127 13.6364C19.467 13.6364 19.797 13.6764 20.127 13.7264V8.63635L14.127 2.63635H6.12695C5.01695 2.63635 4.12695 3.52635 4.12695 4.63635V20.6364C4.12695 21.7464 5.01695 22.6364 6.12695 22.6364H13.937C13.427 21.7564 13.127 20.7364 13.127 19.6364C13.127 16.3264 15.817 13.6364 19.127 13.6364ZM13.127 4.13635L18.627 9.63635H13.127V4.13635ZM23.627 20.6364L21.127 23.6364L18.627 20.6364H20.127V16.6364H22.127V20.6364H23.627ZM19.627 18.6364H18.127V22.6364H16.127V18.6364H14.627L17.127 15.6364L19.627 18.6364Z" fill="black"/>
</svg>
